<svg xmlns="http://www.w3.org/2000/svg" xml:space="preserve" style="enable-background:new 0 0 100 100" viewBox="0 0 100 100">
  <path d="M40.9 0h2.3c.4 0 .8.4.8.9v2.3c0 .4-.4.8-.8.8h-2.3c-.5 0-.9-.4-.9-.8V.9c0-.5.4-.9.9-.9zM60 3.2V.9c0-.5-.4-.9-.9-.9h-2.3c-.4 0-.8.4-.8.9V4h4v-.8z"/>
  <path d="M60.8 4c-.4 0-.8-.4-.8-.8V4h.8zM36.9 4h2.3c.4 0 .8.4.8.9v2.3c0 .4-.4.8-.8.8h-2.3c-.5 0-.9-.4-.9-.8V4.9c0-.5.4-.9.9-.9zm18.2 4c.5 0 .9-.4.9-.8V8h-.9zm.9-4h4v4h-4zm4 0h4v4h-4zm4.8 4h2.3c.5 0 .9-.4.9-.8V4.9c0-.5-.4-.9-.9-.9H64v4h.8zM32.9 8h2.3c.4 0 .8.4.8.9v2.3c0 .5-.4.8-.8.8h-2.3c-.5 0-.8-.4-.8-.8V8.9c-.1-.5.3-.9.8-.9zm12 0h2.3c.4 0 .8.4.8.9v2.3c0 .5-.4.8-.8.8h-2.3c-.5 0-.8-.4-.8-.8V8.9c-.1-.5.3-.9.8-.9zm10.2 0h-2.3c-.4 0-.8.4-.8.9v2.3c0 .5.4.8.8.8H56V8h-.9zm.9 0h4v4h-4zm4 0h4v4h-4zm4.8 0H64v.8c0-.4.4-.8.8-.8zm0 4c-.5 0-.8-.4-.8-.8v.8h.8zM40 15.2v-2.3c0-.5-.4-.8-.8-.8h-2.3c-.5 0-.8.4-.8.8V16h4v-.8zm12 0v-2.3c0-.5-.4-.8-.8-.8h-2.3c-.5 0-.8.4-.8.8V16h4v-.8zm4-2.3V12h-.8c.4 0 .8.4.8.9zm0 2.3c0 .5.4.8.8.8H60v-4h-4v3.2zm4-3.2h4v4h-4z"/>
  <path d="M67.1 12c.5 0 .8.4.8.8V16h-4v-4h3.2zM36 19.2c0 .5.4.8.8.8h2.3c.5 0 .8-.4.8-.8V16h-4v3.2zm11.2.8c.5 0 .8-.4.8-.8v.8h-.8zm.8-4h4v4h-4zm16 .9V16h-.8c.4 0 .8.4.8.9z"/>
  <path d="M64 19.2c0 .5.4.8.8.8h2.3c.5 0 .8-.4.8-.8V16h-4v3.2zm-23.1.8c-.5 0-.8.4-.8.8V24h4v-4h-3.2z"/>
  <path d="M44 20h4v4h-4zm4 0h4v4h-4zm8.8 0c-.5 0-.8.4-.8.8V24h4v-4h-3.2zm4 4h2.3c.5 0 .8-.4.8-.8v-2.3c0-.5-.4-.8-.8-.8H60v4h.8zM36 27.2v-2.3c0-.5-.4-.8-.8-.8h-2.3c-.5 0-.8.4-.8.8V28h4v-.8zm4 0c0 .5.4.8.8.8h2.3c.5 0 .8-.4.8-.8V24h-4v3.2zm4.9-3.2H44v.8c0-.4.4-.8.9-.8zm3.1.9V24h-.8c.4 0 .8.4.8.9z"/>
  <path d="M48 27.2c0 .5.4.8.8.8h2.3c.5 0 .8-.4.8-.8V24h-4v3.2zm8 0c0 .5.4.8.8.8h2.3c.5 0 .8-.4.8-.8V24h-4v3.2zm4.8-3.2H60v.8c0-.4.4-.8.8-.8zm7.2 3.2v-2.3c0-.5-.4-.8-.8-.8h-2.3c-.5 0-.8.4-.8.8V28h4v-.8zM31.2 32c.5 0 .8-.4.8-.8v.8h-.8zm.8-4h4v4h-4zm12.9 0h2.3c.5 0 .8.4.8.8v2.3c0 .5-.4.8-.8.8h-2.3c-.5 0-.8-.4-.8-.8v-2.3c-.1-.4.3-.8.8-.8zM64 31.2c0 .5.4.8.8.8h2.3c.5 0 .8-.4.8-.8V28h-4v3.2zM.9 32c-.5 0-.9.4-.9.9V36h4v-4H.9zM4 32h4v4H4zm4.9 4h2.3c.5 0 .8-.4.8-.8v-2.3c0-.5-.4-.8-.8-.8H8v4h.9zm6.3 0c.5 0 .8-.4.8-.8v.8h-.8zm1.7-4c-.5 0-.8.4-.8.8V36h4v-4h-3.2z"/>
  <path d="M20 32h4v4h-4zm4 0h4v4h-4zm4 0h4v4h-4zm4 0h4v4h-4zm4.9 4c-.5 0-.8-.4-.8-.8v.8h.8zm10.3 0c.5 0 .8-.4.8-.8v.8h-.8zm4.8-.8v-2.3c0-.5-.4-.8-.8-.8h-2.3c-.5 0-.8.4-.8.8V36h4v-.8z"/>
  <path d="M52.8 36c-.5 0-.8-.4-.8-.8v.8h.8zm18.3-4h-2.3c-.5 0-.8.4-.8.8v2.3c0 .5.4.8.8.8H72v-4h-.9zm1.7 4h2.3c.5 0 .8-.4.8-.8v-2.3c0-.5-.4-.8-.8-.8H72v4h.8zm16-4h2.3c.5 0 .8.4.8.8v2.3c0 .5-.4.8-.8.8h-2.3c-.5 0-.8-.4-.8-.8v-2.3c0-.4.4-.8.8-.8zM0 36h4v4H0zm4.9 0H4v.8c0-.4.4-.8.9-.8zm0 4c-.5 0-.9-.4-.9-.8v.8h.9zm10.3-4h-2.3c-.5 0-.8.4-.8.8v2.3c0 .5.4.8.8.8H16v-4h-.8zm4.8 3.2c0 .5-.4.8-.8.8H16v-4h4v3.2zm.9-3.2H20v.8c0-.4.4-.8.9-.8zm11.1.9V36h-.8c.4 0 .8.4.8.9zm0 2.3c0 .5.4.8.8.8H36v-4h-4v3.2zm4.9.8h2.3c.5 0 .8-.4.8-.8v-2.3c0-.5-.4-.8-.8-.8H36v4h.9zm6.3 0c.5 0 .8-.4.8-.8v.8h-.8zm1.7-4c-.5 0-.8.4-.8.8V40h4v-4h-3.2z"/>
  <path d="M48 36h4v4h-4zm4 0h4v4h-4zm4.8 4h2.3c.5 0 .8-.4.8-.8v-2.3c0-.5-.4-.8-.8-.8H56v4h.8zm6.3 0c.5 0 .8-.4.8-.8v.8h-.8zm4.9-.8v-2.3c0-.5-.4-.8-.8-.8h-2.3c-.5 0-.8.4-.8.8V40h4v-.8zm7.1.8c.5 0 .8-.4.8-.8v.8h-.8zm4.9-.8v-2.3c0-.5-.4-.8-.8-.8h-2.3c-.5 0-.8.4-.8.8V40h4v-.8zM92.8 36h2.3c.5 0 .8.4.8.8v2.3c0 .5-.4.8-.8.8h-2.3c-.5 0-.8-.4-.8-.8v-2.3c0-.4.4-.8.8-.8zM0 43.2c0 .4.4.8.9.8H4v-4H0v3.2zM7.2 40c.4 0 .8.4.8.9V44H4v-4h3.2zm20 0h-2.3c-.5 0-.8.4-.8.8v2.3c0 .5.4.8.8.8H28v-4h-.8zm4 0c.5 0 .8.4.8.8V44h-4v-4h3.2zm8 4c.5 0 .8-.4.8-.8v.8h-.8zm1.7-4c-.5 0-.8.4-.8.8V44h4v-4h-3.2z"/>
  <path d="M44 40h4v4h-4zm4 0h4v4h-4zm4 0h4v4h-4zm4.8 0H56v.8c0-.4.4-.8.8-.8zm6.3 0h-2.3c-.5 0-.8.4-.8.8v2.3c0 .5.4.8.8.8H64v-4h-.9zm4.9 3.2c0 .5-.4.8-.8.8H64v-4h4v3.2zm3.1.8c.5 0 .8-.4.8-.8v.8h-.8zm1.7-4c-.5 0-.8.4-.8.8V44h4v-4h-3.2zm7.2 3.2c0 .5-.4.8-.8.8H76v-4h4v3.2zm4.8-3.2h2.3c.5 0 .8.4.8.8v2.3c0 .5-.4.8-.8.8h-2.3c-.5 0-.8-.4-.8-.8v-2.3c0-.4.4-.8.8-.8zM4 44.9V44h-.8c.4 0 .8.4.8.9zm0 2.3c0 .4.4.8.9.8h2.3c.4 0 .8-.4.8-.8V44H4v3.2zm7.2.8c.5 0 .8-.4.8-.8v.8h-.8zm1.7-4c-.5 0-.8.4-.8.8V48h4v-4h-3.2z"/>
  <path d="M19.2 44c.5 0 .8.4.8.8V48h-4v-4h3.2zm8.8.9V44h-.8c.4 0 .8.4.8.9zm-.8 3.1c.5 0 .8-.4.8-.8v.8h-.8zm.8-4h4v4h-4zm11.2 0h-2.3c-.5 0-.8.4-.8.8v2.3c0 .5.4.8.8.8H40v-4h-.8zm.8 0h4v4h-4zm4.9 0H44v.8c0-.4.4-.8.9-.8zm3.1.9V44h-.8c.4 0 .8.4.8.9zM44.9 48c-.5 0-.8-.4-.8-.8v.8h.8zm3.1-.8c0 .5.4.8.8.8H52v-4h-4v3.2zm4-3.2h4v4h-4zm4.8 4c-.5 0-.8-.4-.8-.8v.8h.8zm12-4c-.5 0-.8.4-.8.8V48h4v-4h-3.2zm7.2 3.2c0 .5-.4.8-.8.8H72v-4h4v3.2zm.8-3.2H76v.8c0-.4.4-.8.8-.8zm14.3 4c.5 0 .8-.4.8-.8v.8h-.8zm1.7-4c-.5 0-.8.4-.8.8V48h4v-4h-3.2z"/>
  <path d="M99.1 44c.5 0 .8.4.8.8V48h-4v-4h3.2zM8.9 48c-.5 0-.9.4-.9.9V52h4v-4H8.9zm3.1 0h4v4h-4zm4 0h4v4h-4zm4.9 4c-.5 0-.8-.4-.8-.8v.8h.8zm6.3-4h-2.3c-.5 0-.8.4-.8.8v2.3c0 .5.4.8.8.8H28v-4h-.8zm.8 0h4v4h-4zm12 .9V48h-.8c.4 0 .8.4.8.9zm0-.9h4v4h-4zm7.2 0c.5 0 .8.4.8.8V52h-4v-4h3.2zm4.8.9V48h-.8c.4 0 .8.4.8.9zm0-.9h4v4h-4zm4.8 4h2.3c.5 0 .8-.4.8-.8v-2.3c0-.5-.4-.8-.8-.8H56v4h.8zm11.2-.9c0 .5.4.8.8.8h2.3c.5 0 .8-.4.8-.8V48h-4v3.1zm4.8-3.1H72v.8c0-.4.4-.8.8-.8zm4 0h2.3c.5 0 .8.4.8.8v2.3c0 .5-.4.8-.8.8h-2.3c-.5 0-.8-.4-.8-.8v-2.3c0-.4.4-.8.8-.8zm14.3 0h-2.3c-.5 0-.8.4-.8.8v2.3c0 .5.4.8.8.8H92v-4h-.9zm.9 0h4v4h-4zm4 0h4v4h-4zM8 52h4v4H8zm4.9 0H12v.8c0-.4.4-.8.9-.8zm3.1.8V52h-.8c.4 0 .8.4.8.8z"/>
  <path d="M16 55.1c0 .5.4.8.8.8H20v-4h-4v3.2zm4.9.9h2.3c.5 0 .8-.4.8-.8v-2.3c0-.5-.4-.8-.8-.8H20v4h.9zm7.1-3.2V52h-.8c.4 0 .8.4.8.8zm-.8 3.2c.5 0 .8-.4.8-.8v.8h-.8zm.8-4h4v4h-4zm4.9 4c-.5 0-.8-.4-.8-.8v.8h.8zm6.3 0c.5 0 .8-.4.8-.8v.8h-.8zm.8-4h4v4h-4zm8 3.1c0 .5-.4.8-.8.8H44v-4h4v3.2zm4-3.1h4v4h-4zm4.8 0H56v.8c0-.4.4-.8.8-.8zm6.3 4c.5 0 .8-.4.8-.8v.8h-.8zm4.9-.9v-2.3c0-.5-.4-.8-.8-.8h-2.3c-.5 0-.8.4-.8.8V56h4v-.9z"/>
  <path d="M68.8 56c-.5 0-.8-.4-.8-.8v.8h.8zm12-4h2.3c.5 0 .8.4.8.8v2.3c0 .5-.4.8-.8.8h-2.3c-.5 0-.8-.4-.8-.8v-2.3c0-.4.4-.8.8-.8zm11.2.8V52h-.8c.4 0 .8.4.8.8zm0-.8h4v4h-4zm4 0h4v4h-4zM.9 56h2.3c.4 0 .8.4.8.8v2.3c0 .5-.4.9-.8.9H.9c-.5 0-.9-.4-.9-.9v-2.3c0-.4.4-.8.9-.8zM8 59.1c0 .5.4.9.9.9h2.3c.5 0 .8-.4.8-.8V56H8v3.1zM27.2 56h-2.3c-.5 0-.8.4-.8.8v2.3c0 .5.4.8.8.8H28v-4h-.8zm.8 0h4v4h-4zm4 0h4v4h-4zm4 0h4v4h-4zm8 3.1c0 .5-.4.8-.8.8H40v-4h4v3.2zm.9-3.1H44v.8c0-.4.4-.8.9-.8zm7.1 0h4v4h-4zm11.1 0h-2.3c-.5 0-.8.4-.8.8v2.3c0 .5.4.8.8.8H64v-4h-.9zm.9 0h4v4h-4zm4 0h4v4h-4z"/>
  <path d="M75.1 56c.5 0 .8.4.8.8V60h-4v-4h3.2zm1.7 4c-.5 0-.8-.4-.8-.8v.8h.8zm8-4h2.3c.5 0 .8.4.8.8v2.3c0 .5-.4.8-.8.8h-2.3c-.5 0-.8-.4-.8-.8v-2.3c0-.4.4-.8.8-.8zm7.2 3.1c0 .5.4.8.8.8H96v-4h-4v3.2zm8 0c0 .5-.4.8-.8.8H96v-4h4v3.2zM4.9 60h2.3c.4 0 .8.4.8.8v2.3c0 .5-.4.9-.8.9H4.9c-.5 0-.9-.4-.9-.9v-2.3c0-.4.4-.8.9-.8zm6.3 4c.5 0 .8-.4.8-.8v.8h-.8zm4.8-.9v-2.3c0-.5-.4-.8-.8-.8h-2.3c-.5 0-.8.4-.8.8V64h4v-.9zm.9.9c-.5 0-.8-.4-.8-.8v.8h.8zM28 60.8V60h-.8c.4 0 .8.4.8.8z"/>
  <path d="M28 63.1c0 .5.4.8.8.8h2.3c.5 0 .8-.4.8-.8V60h-4v3.1zm4.9-3.1H32v.8c0-.4.4-.8.9-.8zm12 0h2.3c.5 0 .8.4.8.8v2.3c0 .5-.4.8-.8.8h-2.3c-.5 0-.8-.4-.8-.8v-2.3c-.1-.4.3-.8.8-.8zm7.1 3.1c0 .5.4.8.8.8h2.3c.5 0 .8-.4.8-.8V60h-4v3.1zm12-2.3V60h-.8c.4 0 .8.4.8.8zm0-.8h4v4h-4zm4.8 0H68v.8c0-.4.4-.8.8-.8zm3.2.8V60h-.8c.4 0 .8.4.8.8zm-.9 3.2c.5 0 .8-.4.8-.8v.8h-.8zm-2.3 0c-.5 0-.8-.4-.8-.8v.8h.8zm3.2-4h4v4h-4z"/>
  <path d="M79.1 60c.5 0 .8.4.8.8V64h-4v-4h3.2zm1.7 4c-.5 0-.8-.4-.8-.8v.8h.8zM.9 64h2.3c.4 0 .8.4.8.8v2.3c0 .5-.4.9-.8.9H.9c-.5 0-.9-.4-.9-.9v-2.3c0-.4.4-.8.9-.8zm10.3 0H8.9c-.5 0-.9.4-.9.8v2.3c0 .5.4.9.9.9H12v-4h-.8zm.8 0h4v4h-4zm4.9 4h2.3c.5 0 .8-.4.8-.8v-2.3c0-.5-.4-.8-.8-.8H16v4h.9zm8-4h2.3c.5 0 .8.4.8.8v2.3c0 .5-.4.8-.8.8h-2.3c-.5 0-.8-.4-.8-.8v-2.3c-.1-.4.3-.8.8-.8zm10.3 4c.5 0 .8-.4.8-.8v.8h-.8zm4.8-.9v-2.3c0-.5-.4-.8-.8-.8h-2.3c-.5 0-.8.4-.8.8V68h4v-.9z"/>
  <path d="M40.9 68c-.5 0-.8-.4-.8-.8v.8h.8zm6.3 0c.5 0 .8-.4.8-.8v.8h-.8zm4.8-.9v-2.3c0-.5-.4-.8-.8-.8h-2.3c-.5 0-.8.4-.8.8V68h4v-.9zm3.1.9c.5 0 .8-.4.8-.8v.8h-.8z"/>
  <path d="M52.8 68c-.5 0-.8-.4-.8-.8v.8h.8zm7.2-.9v-2.3c0-.5-.4-.8-.8-.8h-2.3c-.5 0-.8.4-.8.8V68h4v-.9zm3.1.9c.5 0 .8-.4.8-.8v.8h-.8z"/>
  <path d="M60.8 68c-.5 0-.8-.4-.8-.8v.8h.8zm3.2-4h4v4h-4zm4 0h4v4h-4zm4 0h4v4h-4zm4 0h4v4h-4z"/>
  <path d="M83.1 64c.5 0 .8.4.8.8V68h-4v-4h3.2zm5.7 0h2.3c.5 0 .8.4.8.8v2.3c0 .5-.4.8-.8.8h-2.3c-.5 0-.8-.4-.8-.8v-2.3c0-.4.4-.8.8-.8zm8 0h2.3c.5 0 .8.4.8.8v2.3c0 .5-.4.8-.8.8h-2.3c-.5 0-.8-.4-.8-.8v-2.3c0-.4.4-.8.8-.8zm-63.9 4c-.5 0-.8.4-.8.8V72h4v-4h-3.2z"/>
  <path d="M36 68h4v4h-4zm4 0h4v4h-4zm4 0h4v4h-4zm4 0h4v4h-4zm4 0h4v4h-4zm4 0h4v4h-4zm4 0h4v4h-4zm4 0h4v4h-4zm4.8 0H68v.8c0-.4.4-.8.8-.8zm11.2.8V68h-.8c.4 0 .8.4.8.8zm0-.8h4v4h-4zm4.8 4c-.5 0-.8-.4-.8-.8v.8h.8zm11.2-.9v-2.3c0-.5-.4-.8-.8-.8h-2.3c-.5 0-.8.4-.8.8V72h4v-.9z"/>
  <path d="M96.8 72c-.5 0-.8-.4-.8-.8v.8h.8zM32 72h4v4h-4zm4.9 0H36v.8c0-.4.4-.8.9-.8zm7.1.8V72h-.8c.4 0 .8.4.8.8zm0 2.3c0 .5.4.8.8.8H48v-4h-4v3.2zm4-3.1h4v4h-4zm8 3.1c0 .5-.4.8-.8.8H52v-4h4v3.2zm.8-3.1H56v.8c0-.4.4-.8.8-.8zm7.2.8V72h-.8c.4 0 .8.4.8.8zm0-.8h4v4h-4zm8.8 0h2.3c.5 0 .8.4.8.8v2.3c0 .5-.4.8-.8.8h-2.3c-.5 0-.8-.4-.8-.8v-2.3c0-.4.4-.8.8-.8zm7.2 0h4v4h-4z"/>
  <path d="M87.1 72c.5 0 .8.4.8.8V76h-4v-4h3.2zm4.9 0h4v4h-4z"/>
  <path d="M99.1 72c.5 0 .8.4.8.8V76h-4v-4h3.2zM32 76h4v4h-4zm8.9 0h2.3c.5 0 .8.4.8.8v2.3c0 .5-.4.8-.8.8h-2.3c-.5 0-.8-.4-.8-.8v-2.3c-.1-.4.3-.8.8-.8zm7.1.8V76h-.8c.4 0 .8.4.8.8zm-.8 3.2c.5 0 .8-.4.8-.8v.8h-.8zm.8-4h4v4h-4zm4.8 0H52v.8c0-.4.4-.8.8-.8zm0 4c-.5 0-.8-.4-.8-.8v.8h.8zM64 76h4v4h-4zm4.8 4c-.5 0-.8-.4-.8-.8v.8h.8zm10.3 0c.5 0 .8-.4.8-.8v.8h-.8zm.9-4h4v4h-4zm8 3.1c0 .5-.4.8-.8.8H84v-4h4v3.2z"/>
  <path d="M92 79.1c0 .5.4.8.8.8H96v-4h-4v3.2zm8 0c0 .5-.4.8-.8.8H96v-4h4v3.2zm-68 4c0 .5.4.8.8.8h2.3c.5 0 .8-.4.8-.8V80h-4v3.1zM44.9 80c-.5 0-.8.4-.8.8V84h4v-4h-3.2z"/>
  <path d="M48 80h4v4h-4z"/>
  <path d="M55.1 80c.5 0 .8.4.8.8V84h-4v-4h3.2zm8.9 0h4v4h-4zm4 0h4v4h-4zm4 0h4v4h-4zm4 0h4v4h-4zm4 0h4v4h-4zm4.8 0H84v.8c0-.4.4-.8.8-.8zm0 4c-.5 0-.8-.4-.8-.8v.8h.8zm4-4h2.3c.5 0 .8.4.8.8v2.3c0 .5-.4.8-.8.8h-2.3c-.5 0-.8-.4-.8-.8v-2.3c0-.4.4-.8.8-.8zm-53.6 8c.5 0 .8-.4.8-.8v.8h-.8zm4.8-.9v-2.3c0-.5-.4-.8-.8-.8h-2.3c-.5 0-.8.4-.8.8V88h4v-.9zm4 0c0 .5.4.8.8.8h2.3c.5 0 .8-.4.8-.8V84h-4v3.1zm4.9-3.1H48v.8c0-.4.4-.8.9-.8zm3.1.8V84h-.8c.4 0 .8.4.8.8zm-.9 3.2c.5 0 .8-.4.8-.8v.8h-.8zm.9-4h4v4h-4zm11.1 4c.5 0 .8-.4.8-.8v.8h-.8zm.9-4h4v4h-4z"/>
  <path d="M72 87.1c0 .5-.4.8-.8.8H68v-4h4v3.2zm.8-3.1H72v.8c0-.4.4-.8.8-.8zm7.2.8V84h-.8c.4 0 .8.4.8.8zm0 2.3c0 .5.4.8.8.8H84v-4h-4v3.2z"/>
  <path d="M87.1 84c.5 0 .8.4.8.8V88h-4v-4h3.2zm-54.2 4c-.5 0-.8.4-.8.8V92h4v-4h-3.2z"/>
  <path d="M36 88h4v4h-4zm15.1 0h-2.3c-.5 0-.8.4-.8.8v2.3c0 .5.4.8.8.8H52v-4h-.9zm4.9 3.1c0 .5-.4.8-.8.8H52v-4h4v3.2zm4.8-3.1c-.5 0-.8.4-.8.8V92h4v-4h-3.2zm3.2 0h4v4h-4zm4.8 0H68v.8c0-.4.4-.8.8-.8zm0 4c-.5 0-.8-.4-.8-.8v.8h.8zm11.2-.9v-2.3c0-.5-.4-.8-.8-.8h-2.3c-.5 0-.8.4-.8.8V92h4v-.9zm4-2.3V88h-.8c.4 0 .8.4.8.8zm-.9 3.2c.5 0 .8-.4.8-.8v.8h-.8z"/>
  <path d="M80.8 92c-.5 0-.8-.4-.8-.8v.8h.8zm3.2-4h4v4h-4zm4.8 4c-.5 0-.8-.4-.8-.8v.8h.8zm11.2-.9v-2.3c0-.5-.4-.8-.8-.8h-2.3c-.5 0-.8.4-.8.8V92h4v-.9zM32 92h4v4h-4zm8 3.1c0 .5-.4.8-.8.8H36v-4h4v3.2zm4.9-3.1h2.3c.5 0 .8.4.8.8v2.3c0 .5-.4.8-.8.8h-2.3c-.5 0-.8-.4-.8-.8v-2.3c-.1-.4.3-.8.8-.8zm14.2 4c.5 0 .8-.4.8-.8v.8h-.8zm.9-4h4v4h-4zm4 0h4v4h-4zm4.8 4h2.3c.5 0 .8-.4.8-.8v-2.3c0-.5-.4-.8-.8-.8H68v4h.8zm7.2-.9c0 .5.4.8.8.8H80v-4h-4v3.2zm4-3.1h4v4h-4zm4 0h4v4h-4zm4.8 4h2.3c.5 0 .8-.4.8-.8v-2.3c0-.5-.4-.8-.8-.8H88v4h.8zm6.3 0c.5 0 .8-.4.8-.8v.8h-.8zm.9-4h4v4h-4zm-64 7.1c0 .5.4.8.8.8h2.3c.5 0 .8-.4.8-.8V96h-4v3.1zm4.9-3.1H36v.8c0-.4.4-.8.9-.8zm18.2 0h-2.3c-.5 0-.8.4-.8.8v2.3c0 .5.4.8.8.8H56v-4h-.9zm.9 0h4v4h-4z"/>
  <path d="M64 99.1c0 .5-.4.8-.8.8H60v-4h4v3.2zm.8-3.1H64v.8c0-.4.4-.8.8-.8zm15.2.8V96h-.8c.4 0 .8.4.8.8z"/>
  <path d="M80 99.1c0 .5.4.8.8.8h2.3c.5 0 .8-.4.8-.8V96h-4v3.1zm4.8-3.1H84v.8c0-.4.4-.8.8-.8zm10.3 0h-2.3c-.5 0-.8.4-.8.8v2.3c0 .5.4.8.8.8H96v-4h-.9zm4.9 3.1c0 .5-.4.8-.8.8H96v-4h4v3.2zM.9 0C.4 0 0 .4 0 .9v26.3c0 .4.4.8.9.8h26.3c.5 0 .9-.4.9-.9V.9c-.1-.5-.5-.9-.9-.9H.9zM24 8v15.5c0 .3-.2.5-.5.5h-19c-.3 0-.5-.2-.5-.5v-19c0-.3.2-.5.5-.5h19c.3 0 .5.2.5.5V8z"/>
  <path d="M20 16V8.9c0-.5-.4-.9-.8-.9H8.9c-.5 0-.9.4-.9.9v10.3c0 .4.4.8.9.8h10.3c.5 0 .9-.4.9-.9V16zM72.8 0c-.4 0-.8.4-.8.9v26.3c0 .5.4.9.9.9h26.3c.5 0 .9-.4.9-.9V.9c0-.5-.4-.9-.9-.9H72.8zM96 8v15.5c0 .3-.2.5-.5.5h-19c-.3 0-.5-.2-.5-.5v-19c0-.3.2-.5.5-.5h19c.3 0 .5.2.5.5V8z"/>
  <path d="M92 16V8.9c0-.5-.4-.9-.9-.9H80.8c-.4 0-.8.4-.8.9v10.3c0 .5.4.9.9.9h10.3c.5 0 .9-.4.9-.9V16zM.9 72c-.5 0-.9.4-.9.8v26.4c0 .5.4.9.9.9h26.3c.5 0 .9-.4.9-.9V72.8c0-.5-.4-.9-.9-.9 0 .1-26.3.1-26.3.1zM24 80v15.5c0 .3-.2.5-.5.5h-19c-.3 0-.5-.2-.5-.5v-19c0-.3.2-.5.5-.5h19c.3 0 .5.2.5.5V80z"/>
  <path d="M20 88v-7.2c0-.5-.4-.9-.9-.9H8.9c-.5.1-.9.5-.9.9v10.4c0 .4.4.8.9.8h10.3c.5 0 .9-.4.9-.9V88z"/>
</svg>
